<svg xmlns="http://www.w3.org/2000/svg" width="153.003" height="55.233" viewBox="0 0 153.003 55.233"><defs><style>.a{fill:#ff7900;}.b{fill:#fff;}</style></defs><g transform="translate(-35.19 -35.19)"><rect class="a" width="55.225" height="55.225" transform="translate(35.19 35.19)"/><g transform="translate(38.184 75.137)"><path class="b" d="M82.926,151.2a4.528,4.528,0,0,1-2.543.765,2.133,2.133,0,0,1-2.284-2.233c0-1.719,1.581-2.633,4.842-3v-.428c0-.557-.424-.883-1.2-.883a2.308,2.308,0,0,0-1.876.883l-1.369-.781a3.761,3.761,0,0,1,3.276-1.5c2,0,3.127.867,3.127,2.28,0,0,0,5.56,0,5.572H83.1Zm-2.837-1.617a.927.927,0,0,0,.914,1,2.823,2.823,0,0,0,1.876-.808v-1.821C80.988,148.189,80.089,148.676,80.089,149.586Z" transform="translate(-64.257 -141.272)"/><g transform="translate(22.239 2.739)"><path class="b" d="M99.5,144.361l1.675-.231.184.91A4.312,4.312,0,0,1,104,143.98a2.175,2.175,0,0,1,2.4,2.5v5.356h-2.021v-5c0-.942-.243-1.365-.977-1.365a2.992,2.992,0,0,0-1.891.851v5.513H99.5Z" transform="translate(-99.5 -143.98)"/></g><path class="b" d="M145.618,151.98c-2.264,0-3.618-1.456-3.618-3.986,0-2.558,1.369-4.014,3.586-4.014s3.535,1.413,3.535,3.912c0,.133-.016.263-.016.4h-5.116c.016,1.456.62,2.189,1.809,2.189a1.959,1.959,0,0,0,1.742-.985l1.483.824A3.7,3.7,0,0,1,145.618,151.98Zm1.515-5a1.463,1.463,0,0,0-1.55-1.632c-.91,0-1.483.589-1.566,1.632Z" transform="translate(-103.085 -141.241)"/><path class="b" d="M46.622,152.024a4.066,4.066,0,1,1,3.8-4.057A3.679,3.679,0,0,1,46.622,152.024Zm0-6.4c-1.511,0-1.789,1.362-1.789,2.346s.279,2.346,1.789,2.346,1.789-1.361,1.789-2.346S48.133,145.621,46.622,145.621Z" transform="translate(-42.82 -141.199)"/><path class="b" d="M65.74,144.181h1.923v.9a2.986,2.986,0,0,1,2.119-1.063,1.414,1.414,0,0,1,.259.016v1.9h-.1c-.879,0-1.84.137-2.15.82v5.113H65.74Z" transform="translate(-56.747 -141.266)"/><path class="b" d="M124.183,150.2c1.534-.012,1.664-1.573,1.664-2.594,0-1.2-.589-2.178-1.679-2.178-.726,0-1.538.53-1.538,2.26C122.629,148.646,122.7,150.215,124.183,150.2Zm3.606-6.062v7.278c0,1.283-.1,3.4-3.759,3.421-1.511.008-2.911-.592-3.19-1.915l2-.322c.082.377.314.753,1.448.753,1.048,0,1.55-.5,1.55-1.7v-.895l-.027-.027a2.023,2.023,0,0,1-1.985,1.118c-1.789,0-3.2-1.244-3.2-3.841,0-2.57,1.456-4.006,3.088-4.01,1.53,0,2.1.694,2.233,1.063l-.024,0,.165-.918Z" transform="translate(-90.094 -141.253)"/><path class="b" d="M159.053,137.337h-.8v2.2h-.42v-2.2h-.8V137h2.009v.337Zm3.312,2.2h-.42V137.42h-.012l-.832,2.119h-.267L160,137.42h-.012v2.119h-.42V137h.647l.757,1.93.745-1.93h.643Z" transform="translate(-112.224 -137)"/></g><g transform="translate(103.292 55.205)"><path d="M217.949,86.2a9.066,9.066,0,0,1,1.891.184,4.046,4.046,0,0,1,1.464.6,2.776,2.776,0,0,1,.946,1.11,3.912,3.912,0,0,1,.333,1.711,3.179,3.179,0,0,1-.5,1.832,3.6,3.6,0,0,1-1.475,1.2,3.515,3.515,0,0,1,2,1.354,4.035,4.035,0,0,1,.663,2.331,3.984,3.984,0,0,1-.428,1.9,3.723,3.723,0,0,1-1.15,1.314,5.188,5.188,0,0,1-1.648.753,7.337,7.337,0,0,1-1.9.243H211.11V86.2Zm-.408,5.882a2.31,2.31,0,0,0,1.4-.408,1.542,1.542,0,0,0,.549-1.322,1.712,1.712,0,0,0-.18-.836,1.362,1.362,0,0,0-.49-.51,2.079,2.079,0,0,0-.7-.255,4.668,4.668,0,0,0-.824-.071h-2.99v3.4h3.233Zm.184,6.164a4.376,4.376,0,0,0,.895-.09,2.236,2.236,0,0,0,.753-.306,1.517,1.517,0,0,0,.518-.581,1.987,1.987,0,0,0,.192-.934,1.88,1.88,0,0,0-.632-1.6,2.7,2.7,0,0,0-1.668-.479H214.3v3.986Z" transform="translate(-210.187 -86.2)"/><path d="M253.031,106.935v-1.464h-.063a3.223,3.223,0,0,1-1.424,1.322,4.22,4.22,0,0,1-1.789.408,5.042,5.042,0,0,1-1.9-.306,2.762,2.762,0,0,1-1.169-.863,3.349,3.349,0,0,1-.6-1.361,8.575,8.575,0,0,1-.173-1.781V96.42H248.8v5.94a3.691,3.691,0,0,0,.408,1.942,1.574,1.574,0,0,0,1.444.64,2,2,0,0,0,1.707-.7,3.9,3.9,0,0,0,.53-2.311V96.42h2.888v10.519h-2.743Z" transform="translate(-231.333 -92.41)"/><path d="M277.6,103.873a1.678,1.678,0,0,0,.5.549,2.122,2.122,0,0,0,.7.314,3.338,3.338,0,0,0,.824.1,3.1,3.1,0,0,0,.64-.071,2.187,2.187,0,0,0,.612-.224,1.386,1.386,0,0,0,.459-.408,1.072,1.072,0,0,0,.184-.64c0-.436-.29-.761-.863-.977a17.349,17.349,0,0,0-2.409-.651c-.42-.094-.832-.208-1.232-.337a4.136,4.136,0,0,1-1.067-.51,2.5,2.5,0,0,1-.753-.793,2.227,2.227,0,0,1-.286-1.169,3.17,3.17,0,0,1,.4-1.668,2.922,2.922,0,0,1,1.048-1.028,4.612,4.612,0,0,1,1.464-.53,9,9,0,0,1,1.668-.153,8.268,8.268,0,0,1,1.66.165,4.446,4.446,0,0,1,1.436.549,3.315,3.315,0,0,1,1.048,1.028,3.45,3.45,0,0,1,.5,1.617h-2.747a1.26,1.26,0,0,0-.632-1.13,2.892,2.892,0,0,0-1.342-.294,5.22,5.22,0,0,0-.53.031,1.62,1.62,0,0,0-.518.133,1.02,1.02,0,0,0-.4.294.774.774,0,0,0-.165.518.789.789,0,0,0,.286.632,2.173,2.173,0,0,0,.742.4,9.541,9.541,0,0,0,1.048.275c.392.082.793.169,1.2.263a12.676,12.676,0,0,1,1.232.345,4.064,4.064,0,0,1,1.067.538,2.68,2.68,0,0,1,.753.832,2.466,2.466,0,0,1,.286,1.232,3.344,3.344,0,0,1-.416,1.738,3.379,3.379,0,0,1-1.091,1.13,4.387,4.387,0,0,1-1.534.6,9.052,9.052,0,0,1-1.758.173,8.7,8.7,0,0,1-1.789-.184,4.686,4.686,0,0,1-1.558-.612,3.5,3.5,0,0,1-1.118-1.13,3.551,3.551,0,0,1-.479-1.758h2.747A1.546,1.546,0,0,0,277.6,103.873Z" transform="translate(-248.809 -91.96)"/><path d="M303.25,88.582V86.2h2.888v2.382Zm2.888,1.628v10.519H303.25V90.21Z" transform="translate(-266.175 -86.2)"/><path d="M318.341,95.976V97.44h.059a3.3,3.3,0,0,1,1.424-1.334,4.1,4.1,0,0,1,1.789-.416,4.954,4.954,0,0,1,1.9.314,2.823,2.823,0,0,1,1.169.875,3.4,3.4,0,0,1,.6,1.362,8.6,8.6,0,0,1,.173,1.781v6.47H322.57v-5.94a3.691,3.691,0,0,0-.408-1.942,1.574,1.574,0,0,0-1.444-.64,2.006,2.006,0,0,0-1.711.7,3.9,3.9,0,0,0-.53,2.311V106.5H315.59V95.976Z" transform="translate(-273.673 -91.966)"/><path d="M347.868,103.975a2.967,2.967,0,0,0,3.378.2,1.809,1.809,0,0,0,.773-.926h2.543a4.86,4.86,0,0,1-1.872,2.707,5.52,5.52,0,0,1-3.053.812,6.025,6.025,0,0,1-2.237-.4,4.6,4.6,0,0,1-1.687-1.13,5.094,5.094,0,0,1-1.067-1.75,6.4,6.4,0,0,1-.377-2.236,6.118,6.118,0,0,1,.388-2.2,5.086,5.086,0,0,1,2.8-2.927,5.43,5.43,0,0,1,2.186-.428,5,5,0,0,1,2.338.518,4.7,4.7,0,0,1,1.636,1.393,5.775,5.775,0,0,1,.926,1.993,7.564,7.564,0,0,1,.2,2.338h-7.588A2.9,2.9,0,0,0,347.868,103.975Zm3.264-5.532a2.025,2.025,0,0,0-1.577-.569,2.509,2.509,0,0,0-1.15.235,2.2,2.2,0,0,0-.734.581,2.108,2.108,0,0,0-.388.734,3.47,3.47,0,0,0-.133.691h4.7A3.3,3.3,0,0,0,351.132,98.443Z" transform="translate(-291.1 -91.973)"/><path d="M376.041,103.873a1.679,1.679,0,0,0,.5.549,2.122,2.122,0,0,0,.7.314,3.338,3.338,0,0,0,.824.1,3.1,3.1,0,0,0,.64-.071,2.188,2.188,0,0,0,.612-.224,1.425,1.425,0,0,0,.459-.408,1.072,1.072,0,0,0,.184-.64c0-.436-.29-.761-.863-.977a17.346,17.346,0,0,0-2.409-.651c-.42-.094-.832-.208-1.232-.337a4.137,4.137,0,0,1-1.067-.51,2.5,2.5,0,0,1-.753-.793,2.227,2.227,0,0,1-.286-1.169,3.17,3.17,0,0,1,.4-1.668,2.921,2.921,0,0,1,1.048-1.028,4.611,4.611,0,0,1,1.464-.53,9,9,0,0,1,1.668-.153,8.269,8.269,0,0,1,1.66.165,4.445,4.445,0,0,1,1.436.549,3.314,3.314,0,0,1,1.048,1.028,3.45,3.45,0,0,1,.5,1.617h-2.747a1.26,1.26,0,0,0-.632-1.13,2.892,2.892,0,0,0-1.342-.294,5.222,5.222,0,0,0-.53.031,1.62,1.62,0,0,0-.518.133,1.02,1.02,0,0,0-.4.294.774.774,0,0,0-.165.518.789.789,0,0,0,.286.632,2.174,2.174,0,0,0,.742.4,9.547,9.547,0,0,0,1.048.275c.392.082.793.169,1.2.263a12.679,12.679,0,0,1,1.232.345,4.063,4.063,0,0,1,1.067.538,2.681,2.681,0,0,1,.753.832,2.467,2.467,0,0,1,.286,1.232,3.345,3.345,0,0,1-.416,1.738,3.379,3.379,0,0,1-1.091,1.13,4.387,4.387,0,0,1-1.534.6,9.052,9.052,0,0,1-1.758.173,8.7,8.7,0,0,1-1.789-.184,4.686,4.686,0,0,1-1.558-.612,3.5,3.5,0,0,1-1.118-1.13,3.551,3.551,0,0,1-.479-1.758h2.747A1.51,1.51,0,0,0,376.041,103.873Z" transform="translate(-308.624 -91.96)"/><path d="M403.241,103.873a1.679,1.679,0,0,0,.5.549,2.122,2.122,0,0,0,.7.314,3.338,3.338,0,0,0,.824.1,3.1,3.1,0,0,0,.639-.071,2.187,2.187,0,0,0,.612-.224,1.425,1.425,0,0,0,.459-.408,1.072,1.072,0,0,0,.184-.64c0-.436-.29-.761-.863-.977a17.348,17.348,0,0,0-2.409-.651c-.42-.094-.832-.208-1.232-.337a4.135,4.135,0,0,1-1.067-.51,2.5,2.5,0,0,1-.753-.793,2.227,2.227,0,0,1-.286-1.169,3.169,3.169,0,0,1,.4-1.668,2.921,2.921,0,0,1,1.048-1.028,4.612,4.612,0,0,1,1.464-.53,9,9,0,0,1,1.668-.153,8.268,8.268,0,0,1,1.66.165,4.445,4.445,0,0,1,1.436.549,3.315,3.315,0,0,1,1.048,1.028,3.45,3.45,0,0,1,.5,1.617h-2.747a1.26,1.26,0,0,0-.632-1.13,2.892,2.892,0,0,0-1.342-.294,5.221,5.221,0,0,0-.53.031,1.62,1.62,0,0,0-.518.133,1.02,1.02,0,0,0-.4.294.774.774,0,0,0-.165.518.789.789,0,0,0,.286.632,2.173,2.173,0,0,0,.742.4,9.539,9.539,0,0,0,1.048.275c.392.082.793.169,1.2.263a12.671,12.671,0,0,1,1.232.345,4.064,4.064,0,0,1,1.067.538,2.68,2.68,0,0,1,.753.832,2.466,2.466,0,0,1,.286,1.232,3.344,3.344,0,0,1-.416,1.738,3.379,3.379,0,0,1-1.091,1.13,4.387,4.387,0,0,1-1.534.6,9.052,9.052,0,0,1-1.758.173,8.7,8.7,0,0,1-1.789-.184,4.686,4.686,0,0,1-1.558-.612,3.5,3.5,0,0,1-1.118-1.13,3.552,3.552,0,0,1-.479-1.758h2.747A1.51,1.51,0,0,0,403.241,103.873Z" transform="translate(-325.152 -91.96)"/><path d="M212.126,148.5a2.316,2.316,0,0,0,.7.824,3.011,3.011,0,0,0,1.028.467,4.837,4.837,0,0,0,1.22.153,6.381,6.381,0,0,0,.914-.071,3.091,3.091,0,0,0,.914-.275,1.965,1.965,0,0,0,.71-.561,1.408,1.408,0,0,0,.286-.906,1.277,1.277,0,0,0-.377-.957,2.966,2.966,0,0,0-.989-.608,9.5,9.5,0,0,0-1.385-.428c-.514-.122-1.036-.259-1.566-.408a14.315,14.315,0,0,1-1.585-.5,5.481,5.481,0,0,1-1.385-.761,3.623,3.623,0,0,1-.989-1.169,3.541,3.541,0,0,1-.377-1.7,3.812,3.812,0,0,1,.479-1.942,4.281,4.281,0,0,1,1.252-1.373,5.467,5.467,0,0,1,1.75-.812,7.436,7.436,0,0,1,1.954-.263,9.26,9.26,0,0,1,2.185.255,5.406,5.406,0,0,1,1.86.824,4.156,4.156,0,0,1,1.291,1.456,4.471,4.471,0,0,1,.479,2.146h-3.092a2.563,2.563,0,0,0-.275-1.079,1.767,1.767,0,0,0-.62-.671,2.569,2.569,0,0,0-.887-.345,5.531,5.531,0,0,0-1.087-.1,3.7,3.7,0,0,0-.773.082,2.056,2.056,0,0,0-.7.286,1.736,1.736,0,0,0-.518.51,1.358,1.358,0,0,0-.2.773,1.285,1.285,0,0,0,.165.691,1.49,1.49,0,0,0,.64.49,8.218,8.218,0,0,0,1.322.447q.842.224,2.209.569.406.082,1.13.294a5.294,5.294,0,0,1,1.432.683,4.31,4.31,0,0,1,1.232,1.252,3.563,3.563,0,0,1,.518,2,4.426,4.426,0,0,1-.388,1.852,4.013,4.013,0,0,1-1.15,1.475,5.4,5.4,0,0,1-1.891.965,8.915,8.915,0,0,1-2.613.345,9.211,9.211,0,0,1-2.331-.294,5.858,5.858,0,0,1-1.993-.926,4.55,4.55,0,0,1-1.373-1.609,4.838,4.838,0,0,1-.49-2.319h3.092A2.757,2.757,0,0,0,212.126,148.5Z" transform="translate(-208.758 -117.195)"/><path d="M245.762,155.849a2.96,2.96,0,0,0,3.374.2,1.809,1.809,0,0,0,.773-.926h2.543a4.86,4.86,0,0,1-1.872,2.707,5.52,5.52,0,0,1-3.053.812,6.024,6.024,0,0,1-2.236-.4,4.565,4.565,0,0,1-1.687-1.13,5.034,5.034,0,0,1-1.067-1.75,6.4,6.4,0,0,1-.377-2.236,6.2,6.2,0,0,1,.385-2.2,5.208,5.208,0,0,1,1.1-1.762,5.132,5.132,0,0,1,1.7-1.169,5.4,5.4,0,0,1,2.185-.428,5,5,0,0,1,2.338.518,4.713,4.713,0,0,1,1.64,1.393,5.776,5.776,0,0,1,.926,1.993,7.446,7.446,0,0,1,.2,2.338h-7.588A2.926,2.926,0,0,0,245.762,155.849Zm3.264-5.532a2.025,2.025,0,0,0-1.577-.569,2.5,2.5,0,0,0-1.15.235,2.2,2.2,0,0,0-.734.581,2.1,2.1,0,0,0-.385.734,3.475,3.475,0,0,0-.133.691h4.7A3.335,3.335,0,0,0,249.026,150.317Z" transform="translate(-229.054 -123.491)"/><path d="M275.213,147.856v1.954h.039a3.609,3.609,0,0,1,1.342-1.617,3.912,3.912,0,0,1,.957-.459,3.4,3.4,0,0,1,1.059-.165,2.316,2.316,0,0,1,.632.1v2.684c-.133-.027-.3-.051-.487-.071a5.4,5.4,0,0,0-.549-.031,3.122,3.122,0,0,0-1.342.263,2.333,2.333,0,0,0-.887.722,2.909,2.909,0,0,0-.479,1.067,5.865,5.865,0,0,0-.141,1.322v4.74H272.47V147.856Z" transform="translate(-247.472 -123.491)"/><path d="M295.582,158.809l-3.6-10.519h3.029l2.217,7.18h.039l2.217-7.18h2.868l-3.559,10.519Z" transform="translate(-259.327 -123.928)"/><path d="M320.92,140.462V138.08h2.888v2.382Zm2.888,1.628v10.519H320.92V142.09Z" transform="translate(-276.912 -117.724)"/><path d="M337.6,149.748a2.061,2.061,0,0,0-1.161.314,2.556,2.556,0,0,0-.761.812,3.466,3.466,0,0,0-.416,1.1,5.879,5.879,0,0,0-.122,1.189,5.673,5.673,0,0,0,.122,1.161,3.575,3.575,0,0,0,.4,1.067,2.325,2.325,0,0,0,.742.785,2.032,2.032,0,0,0,1.142.306,2.111,2.111,0,0,0,1.6-.581,2.749,2.749,0,0,0,.7-1.558h2.786A4.766,4.766,0,0,1,341,157.536a5.242,5.242,0,0,1-3.437,1.1,5.766,5.766,0,0,1-2.166-.4,4.794,4.794,0,0,1-1.679-1.11,5.03,5.03,0,0,1-1.079-1.7,5.873,5.873,0,0,1-.384-2.166,6.957,6.957,0,0,1,.357-2.268,5.018,5.018,0,0,1,1.048-1.809A4.734,4.734,0,0,1,335.342,148a5.706,5.706,0,0,1,2.28-.428,6.673,6.673,0,0,1,1.8.243,4.908,4.908,0,0,1,1.546.742,3.841,3.841,0,0,1,1.6,3H339.74A1.947,1.947,0,0,0,337.6,149.748Z" transform="translate(-283.796 -123.491)"/><path d="M364.492,155.849a2.96,2.96,0,0,0,3.374.2,1.809,1.809,0,0,0,.773-.926h2.542a4.86,4.86,0,0,1-1.872,2.707,5.52,5.52,0,0,1-3.053.812,6.024,6.024,0,0,1-2.237-.4,4.565,4.565,0,0,1-1.687-1.13,5.034,5.034,0,0,1-1.067-1.75,6.4,6.4,0,0,1-.377-2.236,6.2,6.2,0,0,1,.384-2.2,5.209,5.209,0,0,1,1.1-1.762,5.132,5.132,0,0,1,1.7-1.169,5.4,5.4,0,0,1,2.185-.428,5,5,0,0,1,2.339.518,4.713,4.713,0,0,1,1.64,1.393,5.775,5.775,0,0,1,.926,1.993,7.446,7.446,0,0,1,.2,2.338h-7.588A2.944,2.944,0,0,0,364.492,155.849Zm3.268-5.532a2.025,2.025,0,0,0-1.577-.569,2.5,2.5,0,0,0-1.15.235,2.2,2.2,0,0,0-.734.581,2.1,2.1,0,0,0-.385.734,3.472,3.472,0,0,0-.133.691h4.7A3.369,3.369,0,0,0,367.76,150.317Z" transform="translate(-301.199 -123.491)"/><path d="M392.675,155.753a1.678,1.678,0,0,0,.5.549,2.159,2.159,0,0,0,.7.314,3.338,3.338,0,0,0,.824.1,3.1,3.1,0,0,0,.64-.071,2.188,2.188,0,0,0,.612-.224,1.35,1.35,0,0,0,.459-.408,1.071,1.071,0,0,0,.18-.64c0-.436-.286-.761-.863-.977a17.275,17.275,0,0,0-2.413-.651c-.42-.094-.832-.208-1.232-.337a4.136,4.136,0,0,1-1.067-.51,2.548,2.548,0,0,1-.753-.793,2.264,2.264,0,0,1-.286-1.169,3.17,3.17,0,0,1,.4-1.668,2.891,2.891,0,0,1,1.048-1.028,4.614,4.614,0,0,1,1.464-.53,9,9,0,0,1,1.668-.153,8.266,8.266,0,0,1,1.66.165,4.411,4.411,0,0,1,1.436.549,3.315,3.315,0,0,1,1.048,1.028,3.449,3.449,0,0,1,.5,1.617h-2.747a1.26,1.26,0,0,0-.632-1.13,2.892,2.892,0,0,0-1.342-.294,5.155,5.155,0,0,0-.53.031,1.675,1.675,0,0,0-.518.133,1.049,1.049,0,0,0-.4.294.87.87,0,0,0,.126,1.15,2.138,2.138,0,0,0,.742.4,9.553,9.553,0,0,0,1.048.275c.392.082.793.169,1.2.263a12.687,12.687,0,0,1,1.232.345,4.064,4.064,0,0,1,1.067.538,2.681,2.681,0,0,1,.753.832,2.466,2.466,0,0,1,.286,1.232,3.2,3.2,0,0,1-1.5,2.868,4.416,4.416,0,0,1-1.534.6,9.094,9.094,0,0,1-1.762.173,8.706,8.706,0,0,1-1.789-.184,4.719,4.719,0,0,1-1.558-.612,3.5,3.5,0,0,1-1.118-1.13,3.555,3.555,0,0,1-.479-1.762h2.747A1.516,1.516,0,0,0,392.675,155.753Z" transform="translate(-318.729 -123.484)"/></g></g></svg>