<svg xmlns="http://www.w3.org/2000/svg" width="25.01" height="20.842" viewBox="0 0 25.01 20.842"><defs><style>.a{fill:#ff7900;fill-rule:evenodd;}</style></defs><path class="a" d="M71.786,143.8l-1.569-1.372a10.408,10.408,0,0,0,0-14.017l1.569-1.373A12.5,12.5,0,0,1,71.786,143.8Zm-2.615-2.288L67.6,140.141a6.936,6.936,0,0,0,0-9.441l1.569-1.373a9.031,9.031,0,0,1,0,12.186Zm-2.615-2.288-1.57-1.374a3.473,3.473,0,0,0,0-4.862l1.57-1.374a5.557,5.557,0,0,1,0,7.61Zm-15.166,1.058A1.389,1.389,0,0,1,50,138.895v-6.947a1.389,1.389,0,0,1,1.389-1.389h6.253L63.895,125v20.842l-6.253-5.558Z" transform="translate(-50 -125)"/></svg>